<svg width="750" height="750" viewBox="0 0 750 750" fill="none" xmlns="http://www.w3.org/2000/svg">
<path d="M420 70.9367C457.629 24.8268 532.368 54.906 527.43 111.274L420 70.9367Z" fill="#91D838"/>
<path d="M271.365 89.1353C284.339 30.5782 370.332 21.2958 393.536 73.2435L271.365 89.1353Z" fill="#91D838"/>
<path d="M159.277 164.368C140.453 107.76 207.027 59.1871 252.493 93.0285L159.277 164.368Z" fill="#E13737"/>
<path d="M76.2438 286.265C36.6027 241.72 78.4912 171.149 133.581 184.401L76.2438 286.265Z" fill="#91D838"/>
<path d="M93.3269 545.216C33.8361 541.191 14.3192 461.512 62.9238 432.395L93.3269 545.216Z" fill="#E13737"/>
<path d="M63.109 413.335C10.3212 385.546 24.6927 304.399 80.9267 297.313L63.109 413.335Z" fill="#E13737"/>
<g filter="url(#filter0_d_1_2)">
<circle cx="376.555" cy="407.469" r="315" transform="rotate(-45.4123 376.555 407.469)" fill="#FF852E"/>
</g>
<g filter="url(#filter1_d_1_2)">
<path d="M75.7092 652.979L338.852 388.835C341.952 385.723 346.739 384.977 350.558 387.145C370.021 398.193 380.161 408.245 390.484 426.823C392.586 430.604 391.959 435.166 388.906 438.231L125.529 702.61C108.438 719.766 59.7095 669.04 75.7092 652.979Z" fill="#313131"/>
</g>
<g filter="url(#filter2_d_1_2)">
<path d="M682.723 327.01C748.49 616.692 446.435 811.429 228.427 684.779C225.64 683.159 225.078 679.375 227.341 677.079L422.148 479.448C430.162 471.318 457.434 538.317 447.956 554.157C447.797 554.423 447.604 554.649 447.387 554.87L356.03 647.551C352.73 650.899 355.506 656.502 360.173 655.937C539.721 634.172 604.123 576.697 626.334 374.899C626.458 373.778 626.958 372.696 627.749 371.893L674.384 324.583C677.122 321.805 681.859 323.207 682.723 327.01Z" fill="#313131"/>
</g>
<path d="M452.599 100.175C162.001 38.5832 -28.3696 343.409 101.405 559.572C103.065 562.336 106.857 562.843 109.12 560.547L303.927 362.916C311.941 354.786 244.556 328.481 228.854 338.186C228.591 338.349 228.367 338.545 228.15 338.766L136.793 431.447C133.493 434.794 127.85 432.099 128.348 427.425C147.527 247.582 204.07 182.36 405.527 157.247C406.646 157.107 407.721 156.591 408.512 155.788L455.146 108.478C457.884 105.701 456.414 100.984 452.599 100.175Z" fill="#313131"/>
<path d="M674.44 95.2937L622.886 147.595L632.856 157.423L684.411 105.122C694.824 87.3893 693.791 84.1206 674.44 95.2937Z" fill="#313131"/>
<path d="M543.383 113.367C279.67 -81.9572 -82.242 259.221 92.0511 564.865C95.191 570.371 102.462 571.413 106.894 566.975L544.44 128.879C548.795 124.519 548.287 117 543.383 113.367Z" fill="#FFE4B0"/>
<g filter="url(#filter3_d_1_2)">
<circle cx="369.249" cy="87.6314" r="9.5" transform="rotate(0.313027 369.249 87.6314)" fill="#8B4513"/>
</g>
<ellipse cx="14.4671" cy="14.8686" rx="14.4671" ry="14.8686" transform="matrix(0.869979 -0.493088 0.456325 0.889813 351.797 249.901)" fill="#8B4513"/>
<g filter="url(#filter4_d_1_2)">
<ellipse cx="12.1828" cy="12.5209" rx="12.1828" ry="12.5209" transform="matrix(0.869979 -0.493088 0.456325 0.889813 146.594 488.285)" fill="#8B4513"/>
</g>
<g filter="url(#filter5_d_1_2)">
<ellipse cx="12.1828" cy="12.5209" rx="12.1828" ry="12.5209" transform="matrix(0.869979 -0.493088 0.456325 0.889813 92.7708 315.467)" fill="#8B4513"/>
</g>
<g filter="url(#filter6_d_1_2)">
<ellipse cx="9.89853" cy="10.1732" rx="9.89853" ry="10.1732" transform="matrix(0.869979 -0.493088 0.456325 0.889813 73.4695 472.85)" fill="#8B4513"/>
</g>
<g filter="url(#filter7_d_1_2)">
<ellipse cx="9.89853" cy="10.1732" rx="9.89853" ry="10.1732" transform="matrix(0.869979 -0.493088 0.456325 0.889813 475.749 113.108)" fill="#8B4513"/>
</g>
<g filter="url(#filter8_d_1_2)">
<ellipse cx="16.7514" cy="17.2162" rx="16.7514" ry="17.2162" transform="matrix(0.869979 -0.493088 0.456325 0.889813 216 301.52)" fill="#8B4513"/>
</g>
<g filter="url(#filter9_d_1_2)">
<circle cx="341.06" cy="175.06" r="11" transform="rotate(0.313027 341.06 175.06)" fill="#8B4513"/>
</g>
<g filter="url(#filter10_d_1_2)">
<ellipse cx="9.89853" cy="10.1732" rx="9.89853" ry="10.1732" transform="matrix(0.869979 -0.493088 0.456325 0.889813 155.54 217.429)" fill="#8B4513"/>
</g>
<g filter="url(#filter11_d_1_2)">
<path d="M290.188 295.657C409.188 323.793 458.689 373.289 489.598 492.217C540.911 440.161 574.482 373.427 552.36 351.622C594.348 309.025 670.713 185.612 632.79 148.231C594.868 110.851 471.854 188.281 429.866 230.878C407.113 208.449 340.447 244.67 290.188 295.657Z" fill="#313131"/>
</g>
<circle cx="546.439" cy="235.122" r="37" transform="rotate(-45.4123 546.439 235.122)" fill="#87CEFA" stroke="#D9D9D9" stroke-width="4"/>
<defs>
<filter id="filter0_d_1_2" x="57.555" y="92.4686" width="638" height="638" filterUnits="userSpaceOnUse" color-interpolation-filters="sRGB">
<feFlood flood-opacity="0" result="BackgroundImageFix"/>
<feColorMatrix in="SourceAlpha" type="matrix" values="0 0 0 0 0 0 0 0 0 0 0 0 0 0 0 0 0 0 127 0" result="hardAlpha"/>
<feOffset dy="4"/>
<feGaussianBlur stdDeviation="2"/>
<feComposite in2="hardAlpha" operator="out"/>
<feColorMatrix type="matrix" values="0 0 0 0 0 0 0 0 0 0 0 0 0 0 0 0 0 0 0.25 0"/>
<feBlend mode="normal" in2="BackgroundImageFix" result="effect1_dropShadow_1_2"/>
<feBlend mode="normal" in="SourceGraphic" in2="effect1_dropShadow_1_2" result="shape"/>
</filter>
<filter id="filter1_d_1_2" x="68.5301" y="385.906" width="327.186" height="328.2" filterUnits="userSpaceOnUse" color-interpolation-filters="sRGB">
<feFlood flood-opacity="0" result="BackgroundImageFix"/>
<feColorMatrix in="SourceAlpha" type="matrix" values="0 0 0 0 0 0 0 0 0 0 0 0 0 0 0 0 0 0 127 0" result="hardAlpha"/>
<feOffset dy="4"/>
<feGaussianBlur stdDeviation="2"/>
<feComposite in2="hardAlpha" operator="out"/>
<feColorMatrix type="matrix" values="0 0 0 0 0 0 0 0 0 0 0 0 0 0 0 0 0 0 0.25 0"/>
<feBlend mode="normal" in2="BackgroundImageFix" result="effect1_dropShadow_1_2"/>
<feBlend mode="normal" in="SourceGraphic" in2="effect1_dropShadow_1_2" result="shape"/>
</filter>
<filter id="filter2_d_1_2" x="221.94" y="323.125" width="473.955" height="409.029" filterUnits="userSpaceOnUse" color-interpolation-filters="sRGB">
<feFlood flood-opacity="0" result="BackgroundImageFix"/>
<feColorMatrix in="SourceAlpha" type="matrix" values="0 0 0 0 0 0 0 0 0 0 0 0 0 0 0 0 0 0 127 0" result="hardAlpha"/>
<feOffset dy="4"/>
<feGaussianBlur stdDeviation="2"/>
<feComposite in2="hardAlpha" operator="out"/>
<feColorMatrix type="matrix" values="0 0 0 0 0 0 0 0 0 0 0 0 0 0 0 0 0 0 0.25 0"/>
<feBlend mode="normal" in2="BackgroundImageFix" result="effect1_dropShadow_1_2"/>
<feBlend mode="normal" in="SourceGraphic" in2="effect1_dropShadow_1_2" result="shape"/>
</filter>
<filter id="filter3_d_1_2" x="355.749" y="78.1314" width="27" height="27" filterUnits="userSpaceOnUse" color-interpolation-filters="sRGB">
<feFlood flood-opacity="0" result="BackgroundImageFix"/>
<feColorMatrix in="SourceAlpha" type="matrix" values="0 0 0 0 0 0 0 0 0 0 0 0 0 0 0 0 0 0 127 0" result="hardAlpha"/>
<feOffset dy="4"/>
<feGaussianBlur stdDeviation="2"/>
<feComposite in2="hardAlpha" operator="out"/>
<feColorMatrix type="matrix" values="0 0 0 0 0 0 0 0 0 0 0 0 0 0 0 0 0 0 0.25 0"/>
<feBlend mode="normal" in2="BackgroundImageFix" result="effect1_dropShadow_1_2"/>
<feBlend mode="normal" in="SourceGraphic" in2="effect1_dropShadow_1_2" result="shape"/>
</filter>
<filter id="filter4_d_1_2" x="146.863" y="480.76" width="32.0861" height="33.3201" filterUnits="userSpaceOnUse" color-interpolation-filters="sRGB">
<feFlood flood-opacity="0" result="BackgroundImageFix"/>
<feColorMatrix in="SourceAlpha" type="matrix" values="0 0 0 0 0 0 0 0 0 0 0 0 0 0 0 0 0 0 127 0" result="hardAlpha"/>
<feOffset dy="4"/>
<feGaussianBlur stdDeviation="2"/>
<feComposite in2="hardAlpha" operator="out"/>
<feColorMatrix type="matrix" values="0 0 0 0 0 0 0 0 0 0 0 0 0 0 0 0 0 0 0.25 0"/>
<feBlend mode="normal" in2="BackgroundImageFix" result="effect1_dropShadow_1_2"/>
<feBlend mode="normal" in="SourceGraphic" in2="effect1_dropShadow_1_2" result="shape"/>
</filter>
<filter id="filter5_d_1_2" x="93.0401" y="307.941" width="32.0861" height="33.3201" filterUnits="userSpaceOnUse" color-interpolation-filters="sRGB">
<feFlood flood-opacity="0" result="BackgroundImageFix"/>
<feColorMatrix in="SourceAlpha" type="matrix" values="0 0 0 0 0 0 0 0 0 0 0 0 0 0 0 0 0 0 127 0" result="hardAlpha"/>
<feOffset dy="4"/>
<feGaussianBlur stdDeviation="2"/>
<feComposite in2="hardAlpha" operator="out"/>
<feColorMatrix type="matrix" values="0 0 0 0 0 0 0 0 0 0 0 0 0 0 0 0 0 0 0.25 0"/>
<feBlend mode="normal" in2="BackgroundImageFix" result="effect1_dropShadow_1_2"/>
<feBlend mode="normal" in="SourceGraphic" in2="effect1_dropShadow_1_2" result="shape"/>
</filter>
<filter id="filter6_d_1_2" x="72.9383" y="466.735" width="27.57" height="28.5725" filterUnits="userSpaceOnUse" color-interpolation-filters="sRGB">
<feFlood flood-opacity="0" result="BackgroundImageFix"/>
<feColorMatrix in="SourceAlpha" type="matrix" values="0 0 0 0 0 0 0 0 0 0 0 0 0 0 0 0 0 0 127 0" result="hardAlpha"/>
<feOffset dy="4"/>
<feGaussianBlur stdDeviation="2"/>
<feComposite in2="hardAlpha" operator="out"/>
<feColorMatrix type="matrix" values="0 0 0 0 0 0 0 0 0 0 0 0 0 0 0 0 0 0 0.25 0"/>
<feBlend mode="normal" in2="BackgroundImageFix" result="effect1_dropShadow_1_2"/>
<feBlend mode="normal" in="SourceGraphic" in2="effect1_dropShadow_1_2" result="shape"/>
</filter>
<filter id="filter7_d_1_2" x="475.218" y="106.993" width="27.57" height="28.5725" filterUnits="userSpaceOnUse" color-interpolation-filters="sRGB">
<feFlood flood-opacity="0" result="BackgroundImageFix"/>
<feColorMatrix in="SourceAlpha" type="matrix" values="0 0 0 0 0 0 0 0 0 0 0 0 0 0 0 0 0 0 127 0" result="hardAlpha"/>
<feOffset dy="4"/>
<feGaussianBlur stdDeviation="2"/>
<feComposite in2="hardAlpha" operator="out"/>
<feColorMatrix type="matrix" values="0 0 0 0 0 0 0 0 0 0 0 0 0 0 0 0 0 0 0.25 0"/>
<feBlend mode="normal" in2="BackgroundImageFix" result="effect1_dropShadow_1_2"/>
<feBlend mode="normal" in="SourceGraphic" in2="effect1_dropShadow_1_2" result="shape"/>
</filter>
<filter id="filter8_d_1_2" x="217.87" y="291.172" width="41.1184" height="42.8151" filterUnits="userSpaceOnUse" color-interpolation-filters="sRGB">
<feFlood flood-opacity="0" result="BackgroundImageFix"/>
<feColorMatrix in="SourceAlpha" type="matrix" values="0 0 0 0 0 0 0 0 0 0 0 0 0 0 0 0 0 0 127 0" result="hardAlpha"/>
<feOffset dy="4"/>
<feGaussianBlur stdDeviation="2"/>
<feComposite in2="hardAlpha" operator="out"/>
<feColorMatrix type="matrix" values="0 0 0 0 0 0 0 0 0 0 0 0 0 0 0 0 0 0 0.25 0"/>
<feBlend mode="normal" in2="BackgroundImageFix" result="effect1_dropShadow_1_2"/>
<feBlend mode="normal" in="SourceGraphic" in2="effect1_dropShadow_1_2" result="shape"/>
</filter>
<filter id="filter9_d_1_2" x="326.06" y="164.06" width="30" height="30" filterUnits="userSpaceOnUse" color-interpolation-filters="sRGB">
<feFlood flood-opacity="0" result="BackgroundImageFix"/>
<feColorMatrix in="SourceAlpha" type="matrix" values="0 0 0 0 0 0 0 0 0 0 0 0 0 0 0 0 0 0 127 0" result="hardAlpha"/>
<feOffset dy="4"/>
<feGaussianBlur stdDeviation="2"/>
<feComposite in2="hardAlpha" operator="out"/>
<feColorMatrix type="matrix" values="0 0 0 0 0 0 0 0 0 0 0 0 0 0 0 0 0 0 0.25 0"/>
<feBlend mode="normal" in2="BackgroundImageFix" result="effect1_dropShadow_1_2"/>
<feBlend mode="normal" in="SourceGraphic" in2="effect1_dropShadow_1_2" result="shape"/>
</filter>
<filter id="filter10_d_1_2" x="155.009" y="211.314" width="27.57" height="28.5725" filterUnits="userSpaceOnUse" color-interpolation-filters="sRGB">
<feFlood flood-opacity="0" result="BackgroundImageFix"/>
<feColorMatrix in="SourceAlpha" type="matrix" values="0 0 0 0 0 0 0 0 0 0 0 0 0 0 0 0 0 0 127 0" result="hardAlpha"/>
<feOffset dy="4"/>
<feGaussianBlur stdDeviation="2"/>
<feComposite in2="hardAlpha" operator="out"/>
<feColorMatrix type="matrix" values="0 0 0 0 0 0 0 0 0 0 0 0 0 0 0 0 0 0 0.25 0"/>
<feBlend mode="normal" in2="BackgroundImageFix" result="effect1_dropShadow_1_2"/>
<feBlend mode="normal" in="SourceGraphic" in2="effect1_dropShadow_1_2" result="shape"/>
</filter>
<filter id="filter11_d_1_2" x="286.188" y="138.326" width="360.86" height="361.892" filterUnits="userSpaceOnUse" color-interpolation-filters="sRGB">
<feFlood flood-opacity="0" result="BackgroundImageFix"/>
<feColorMatrix in="SourceAlpha" type="matrix" values="0 0 0 0 0 0 0 0 0 0 0 0 0 0 0 0 0 0 127 0" result="hardAlpha"/>
<feOffset dy="4"/>
<feGaussianBlur stdDeviation="2"/>
<feComposite in2="hardAlpha" operator="out"/>
<feColorMatrix type="matrix" values="0 0 0 0 0 0 0 0 0 0 0 0 0 0 0 0 0 0 0.25 0"/>
<feBlend mode="normal" in2="BackgroundImageFix" result="effect1_dropShadow_1_2"/>
<feBlend mode="normal" in="SourceGraphic" in2="effect1_dropShadow_1_2" result="shape"/>
</filter>
</defs>
</svg>
